<svg width="30" height="31" viewBox="0 0 30 31" fill="none" xmlns="http://www.w3.org/2000/svg">
<g clip-path="url(#clip0_14_880)">
<rect y="0.5" width="30" height="30" rx="15" fill="#333333"/>
<path d="M23.6079 9.51251C23.4955 9.39535 23.3619 9.30236 23.2147 9.23889C23.0674 9.17543 22.9095 9.14276 22.75 9.14276C22.5904 9.14276 22.4325 9.17543 22.2853 9.23889C22.138 9.30236 22.0044 9.39535 21.892 9.51251L12.89 18.8375L9.10788 14.9125C8.99125 14.796 8.85357 14.7043 8.7027 14.6428C8.55183 14.5813 8.39073 14.5511 8.2286 14.554C8.06646 14.5569 7.90647 14.5929 7.75775 14.6597C7.60903 14.7266 7.4745 14.8231 7.36183 14.9438C7.24917 15.0644 7.16058 15.2068 7.10113 15.3629C7.04167 15.519 7.01252 15.6856 7.01532 15.8534C7.01813 16.0211 7.05284 16.1866 7.11748 16.3404C7.18212 16.4943 7.27541 16.6335 7.39204 16.75L12.032 21.55C12.1444 21.6672 12.278 21.7602 12.4253 21.8236C12.5725 21.8871 12.7304 21.9198 12.89 21.9198C13.0495 21.9198 13.2074 21.8871 13.3547 21.8236C13.5019 21.7602 13.6355 21.6672 13.7479 21.55L23.6079 11.35C23.7305 11.233 23.8284 11.0909 23.8954 10.9328C23.9623 10.7746 23.9969 10.6039 23.9969 10.4313C23.9969 10.2586 23.9623 10.0879 23.8954 9.92975C23.8284 9.77163 23.7305 9.62956 23.6079 9.51251V9.51251Z" fill="#F9E0E0"/>
</g>
<defs>
<clipPath id="clip0_14_880">
<rect y="0.5" width="30" height="30" rx="15" fill="white"/>
</clipPath>
</defs>
</svg>
